<svg xmlns="http://www.w3.org/2000/svg" viewBox="0 0 1920 1080" width="100%" height="100%">
      <defs>
        <radialGradient id="tech-bg" cx="50%" cy="50%" r="70%">
          <stop offset="0%" stop-color="#020205" />
          <stop offset="100%" stop-color="#0a0515" />
        </radialGradient>
        <linearGradient id="neon-glow" x1="0%" y1="0%" x2="100%" y2="0%">
          <stop offset="0%" stop-color="#ec4899" />
          <stop offset="50%" stop-color="#8b5cf6" />
          <stop offset="100%" stop-color="#3b82f6" />
        </linearGradient>
        <filter id="neon-blur" x="-20%" y="-20%" width="140%" height="140%">
          <feGaussianBlur stdDeviation="15" result="blur" />
          <feComposite in="SourceGraphic" in2="blur" operator="over" />
        </filter>
      </defs>

      <!-- Background -->
      <rect width="1920" height="1080" fill="url(#tech-bg)" />

      <!-- Glowing Orbs -->
      <circle cx="960" cy="540" r="500" fill="#8b5cf6" opacity="0.04" filter="url(#neon-blur)" />
      
      <!-- Tech Circuit Board Vector Graphics -->
      <g stroke="url(#neon-glow)" stroke-width="1.5" fill="none" opacity="0.4" filter="url(#neon-blur)">
        <!-- Horizontal grid connectors -->
        <path d="M 100,540 L 500,540 L 580,460 L 900,460 L 960,520 L 1200,520 L 1260,580 L 1820,580" />
        <path d="M 200,200 L 700,200 L 760,260 L 1100,260 L 1160,200 L 1720,200" />
        <path d="M 300,880 L 600,880 L 680,800 L 1220,800 L 1280,860 L 1620,860" />
        
        <!-- Connecting vertical pins -->
        <path d="M 500,540 L 500,700 L 520,720" />
        <path d="M 1100,260 L 1100,400 L 1140,440" />

        <!-- Glowing Nodes -->
        <circle cx="500" cy="540" r="6" fill="#ec4899" />
        <circle cx="580" cy="460" r="4" fill="#8b5cf6" />
        <circle cx="900" cy="460" r="4" fill="#8b5cf6" />
        <circle cx="960" cy="520" r="6" fill="#3b82f6" />
        <circle cx="1200" cy="520" r="4" fill="#8b5cf6" />
        <circle cx="1260" cy="580" r="6" fill="#ec4899" />
        
        <circle cx="700" cy="200" r="6" fill="#3b82f6" />
        <circle cx="760" cy="260" r="4" fill="#8b5cf6" />
        <circle cx="1100" cy="260" r="6" fill="#ec4899" />
        <circle cx="1160" cy="200" r="4" fill="#3b82f6" />

        <!-- 3D tech cube abstract outline -->
        <g transform="translate(960, 500) scale(1.5)">
          <polygon points="0,-100 86,-50 86,50 0,100 -86,50 -86,-50" stroke-width="2" />
          <path d="M0,-100 L0,100" />
          <path d="M0,0 L86,-50" />
          <path d="M0,0 L-86,-50" />
          <path d="M0,0 L0,100" />
          <line x1="-86" y1="50" x2="0" y2="0" />
          <line x1="86" y1="50" x2="0" y2="0" />
        </g>
      </g>
    </svg>