<svg xmlns="http://www.w3.org/2000/svg" viewBox="0 0 1920 1080" width="100%" height="100%">
      <title>ultra‑detailed 4K render of a semi‑transparent glass UI panel, rounded corners, brushed aluminum border with cyan edge‑glow, frosted texture, iridescent sheen shifting from teal to violet, soft cyan back‑light halo, slight inner reflection of cyberpunk grid, floating above dark matte background, HDRI cyber‑city ambient, realistic glass material, V‑Ray, 85mm portrait lens, f/2.2, shallow depth‑of‑field, subtle bloom</title>
      <defs>
        <radialGradient id="saas-bg" cx="50%" cy="50%" r="70%">
          <stop offset="0%" stop-color="#0f172a" />
          <stop offset="100%" stop-color="#020617" />
        </radialGradient>
        <linearGradient id="purple-cyan" x1="0%" y1="0%" x2="100%" y2="100%">
          <stop offset="0%" stop-color="#a855f7" />
          <stop offset="100%" stop-color="#06b6d4" />
        </linearGradient>
        <linearGradient id="grid-grad" x1="0%" y1="0%" x2="0%" y2="100%">
          <stop offset="0%" stop-color="#1e293b" stop-opacity="0.8" />
          <stop offset="100%" stop-color="#0f172a" stop-opacity="0.2" />
        </linearGradient>
        <filter id="card-glow" x="-10%" y="-10%" width="120%" height="120%">
          <feGaussianBlur stdDeviation="20" result="blur" />
          <feComposite in="SourceGraphic" in2="blur" operator="over" />
        </filter>
      </defs>
      
      <!-- Background -->
      <rect width="1920" height="1080" fill="url(#saas-bg)" />
      
      <!-- Moving radial glows -->
      <circle cx="1200" cy="400" r="350" fill="#a855f7" opacity="0.08" filter="url(#card-glow)" />
      <circle cx="700" cy="700" r="400" fill="#06b6d4" opacity="0.08" filter="url(#card-glow)" />
      
      <!-- Abstract Grid -->
      <path d="M0,0 L1920,0 M0,100 L1920,100 M0,200 L1920,200 M0,300 L1920,300 M0,400 L1920,400 M0,500 L1920,500 M0,600 L1920,600 M0,700 L1920,700 M0,800 L1920,800 M0,900 L1920,900 M0,1000 L1920,1000" stroke="url(#grid-grad)" stroke-width="1" opacity="0.2" />
      <path d="M0,0 L0,1080 M100,0 L100,1080 M200,0 L200,1080 M300,0 L300,1080 M400,0 L400,1080 M500,0 L500,1080 M600,0 L600,1080 M700,0 L700,1080 M800,0 L800,1080 M900,0 L900,1080 M1000,0 L1000,1080 M1100,0 L1100,1080 M1200,0 L1200,1080 M1300,0 L1300,1080 M1400,0 L1400,1080 M1500,0 L1500,1080 M1600,0 L1600,1080 M1700,0 L1700,1080 M1800,0 L1800,1080 M1900,0 L1900,1080" stroke="url(#grid-grad)" stroke-width="1" opacity="0.2" />

      <!-- UI Mockup Frame (Glassmorphic Dashboard) -->
      <g transform="translate(480, 200)">
        <!-- Shadow & Card Base -->
        <rect width="960" height="600" rx="24" fill="#1e293b" fill-opacity="0.4" stroke="#334155" stroke-width="1.5" />
        <rect width="960" height="60" rx="0" fill="#0f172a" fill-opacity="0.5" stroke="#334155" stroke-width="0" clip-path="inset(0 0 540 0)" />
        
        <!-- Browser dots -->
        <circle cx="30" cy="30" r="8" fill="#ef4444" />
        <circle cx="60" cy="30" r="8" fill="#f59e0b" />
        <circle cx="90" cy="30" r="8" fill="#10b981" />
        
        <!-- Side navigation sidebar mockup -->
        <rect x="20" y="80" width="180" height="500" rx="12" fill="#0f172a" fill-opacity="0.3" />
        <rect x="40" y="110" width="140" height="24" rx="6" fill="url(#purple-cyan)" fill-opacity="0.8" />
        <rect x="40" y="160" width="140" height="18" rx="4" fill="#475569" fill-opacity="0.5" />
        <rect x="40" y="200" width="140" height="18" rx="4" fill="#475569" fill-opacity="0.5" />
        <rect x="40" y="240" width="140" height="18" rx="4" fill="#475569" fill-opacity="0.5" />

        <!-- Dashboard Charts -->
        <rect x="220" y="80" width="460" height="320" rx="16" fill="#0f172a" fill-opacity="0.4" stroke="#334155" />
        <!-- Spline Line Chart -->
        <path d="M250,340 Q350,180 450,280 T650,150" fill="none" stroke="url(#purple-cyan)" stroke-width="5" filter="url(#card-glow)" />
        <circle cx="650" cy="150" r="10" fill="#22d3ee" />

        <!-- Mini Stats Grid -->
        <rect x="700" y="80" width="240" height="145" rx="16" fill="#0f172a" fill-opacity="0.4" stroke="#334155" />
        <rect x="700" y="255" width="240" height="145" rx="16" fill="#0f172a" fill-opacity="0.4" stroke="#334155" />
        
        <circle cx="760" cy="150" r="25" fill="#a855f7" fill-opacity="0.2" />
        <rect x="800" y="130" width="110" height="15" rx="4" fill="#cbd5e1" />
        <rect x="800" y="155" width="70" height="10" rx="2" fill="#64748b" />
        
        <circle cx="760" cy="325" r="25" fill="#06b6d4" fill-opacity="0.2" />
        <rect x="800" y="305" width="110" height="15" rx="4" fill="#cbd5e1" />
        <rect x="800" y="330" width="70" height="10" rx="2" fill="#64748b" />

        <!-- Bottom wide log/activities -->
        <rect x="220" y="420" width="720" height="160" rx="16" fill="#0f172a" fill-opacity="0.4" stroke="#334155" />
        <rect x="250" y="460" width="200" height="16" rx="4" fill="#64748b" fill-opacity="0.6" />
        <rect x="250" y="490" width="450" height="12" rx="3" fill="#475569" fill-opacity="0.4" />
        <rect x="250" y="520" width="320" height="12" rx="3" fill="#475569" fill-opacity="0.4" />
        <circle cx="890" cy="500" r="30" fill="#10b981" fill-opacity="0.2" />
        <polygon points="885,500 892,507 905,492" stroke="#10b981" stroke-width="3" fill="none" />
      </g>
    </svg>